<svg xmlns="http://www.w3.org/2000/svg" version="1.1" xmlns:xlink="http://www.w3.org/1999/xlink" width="512" height="512" x="0" y="0" viewBox="0 0 512 512" style="enable-background:new 0 0 512 512" xml:space="preserve" class=""><g><path d="m460.853 256 33.574-33.574C505.759 211.093 512 196.026 512 180c0-33.084-26.916-60-60-60-16.027 0-31.095 6.241-42.427 17.574L376 171.147 340.853 136l33.574-33.574C385.759 91.093 392 76.026 392 60c0-33.084-26.916-60-60-60-16.027 0-31.095 6.241-42.426 17.574L256 51.147l-33.573-33.573C211.095 6.241 196.027 0 180 0c-33.084 0-60 26.916-60 60 0 16.026 6.241 31.093 17.573 42.426L171.147 136 136 171.147l-33.573-33.573C91.095 126.241 76.027 120 60 120c-33.084 0-60 26.916-60 60 0 16.026 6.241 31.093 17.573 42.426L51.147 256l-33.574 33.574C6.241 300.907 0 315.974 0 332c0 33.084 26.916 60 60 60 16.027 0 31.095-6.241 42.427-17.574L136 340.853 171.147 376l-33.574 33.574C126.241 420.906 120 435.974 120 452c0 33.084 26.916 60 60 60 16.027 0 31.095-6.241 42.427-17.574L256 460.853l33.573 33.573C300.905 505.759 315.973 512 332 512c33.084 0 60-26.916 60-60 0-16.026-6.241-31.094-17.573-42.426L340.853 376 376 340.853l33.573 33.573C420.905 385.759 435.973 392 452 392c33.084 0 60-26.916 60-60 0-16.026-6.241-31.093-17.574-42.427zM317.858 45.857A19.87 19.87 0 0 1 332 40c11.028 0 20 8.972 20 20 0 5.342-2.08 10.365-5.858 14.142l-33.573 33.573-28.284-28.284zM160 60c0-11.028 8.972-20 20-20 5.343 0 10.364 2.08 14.142 5.858l153.574 153.574-28.284 28.284L165.859 74.143A19.867 19.867 0 0 1 160 60zm60.853 196L256 220.853 291.147 256 256 291.147zM45.858 194.142A19.866 19.866 0 0 1 40 180c0-11.028 8.972-20 20-20 5.343 0 10.364 2.08 14.142 5.858l33.574 33.574-28.284 28.284zm28.284 152.001A19.87 19.87 0 0 1 60 352c-11.028 0-20-8.972-20-20 0-5.342 2.08-10.365 5.858-14.142l153.573-153.573 28.284 28.284L74.142 346.143zm120 120A19.87 19.87 0 0 1 180 472c-11.028 0-20-8.972-20-20 0-5.342 2.08-10.364 5.858-14.142l33.573-33.573 28.284 28.284zM352 452c0 11.028-8.972 20-20 20a19.866 19.866 0 0 1-14.142-5.858L164.284 312.569l28.284-28.284 153.573 153.573A19.865 19.865 0 0 1 352 452zm-67.715-132.568 153.574-153.574A19.862 19.862 0 0 1 452 160c11.028 0 20 8.972 20 20 0 5.342-2.08 10.365-5.858 14.142L312.568 347.715zM452 352a19.866 19.866 0 0 1-14.142-5.858l-33.574-33.574 28.284-28.284 33.573 33.573A19.867 19.867 0 0 1 472 332c0 11.028-8.972 20-20 20z" fill="#f37a49" opacity="1" data-original="#000000" class=""></path></g></svg>